<?xml version="1.0" standalone="no"?>
<!DOCTYPE svg PUBLIC "-//W3C//DTD SVG 20010904//EN"
 "http://www.w3.org/TR/2001/REC-SVG-20010904/DTD/svg10.dtd">
<svg version="1.0" xmlns="http://www.w3.org/2000/svg"
 width="512.000000pt" height="512.000000pt" viewBox="0 0 512.000000 512.000000"
 preserveAspectRatio="xMidYMid meet">
<metadata>
Created by potrace 1.11, written by Peter Selinger 2001-2013
</metadata>
<g transform="translate(0.000000,512.000000) scale(0.100000,-0.100000)"
fill="#000000" stroke="none">
<path d="M2880 5105 c0 -9 -8 -18 -17 -22 -10 -3 -26 -13 -36 -21 -16 -14 -19
-14 -32 4 -12 17 -17 17 -36 6 -12 -8 -33 -16 -47 -18 -13 -3 -37 -11 -53 -19
-15 -8 -35 -15 -43 -15 -8 0 -24 -12 -35 -27 -37 -50 -42 -54 -62 -48 -11 4
-19 2 -19 -4 0 -6 -9 -11 -21 -11 -13 0 -23 -10 -30 -30 -6 -16 -17 -30 -25
-30 -17 0 -27 -36 -22 -81 2 -28 0 -34 -17 -34 -14 0 -23 10 -30 33 -13 44
-32 41 -26 -5 1 -7 -8 -17 -19 -23 -14 -7 -19 -17 -15 -29 4 -13 -6 -22 -45
-39 -35 -15 -50 -28 -50 -41 0 -17 -20 -33 -45 -35 -5 -1 -10 -15 -10 -31 0
-42 -30 -44 -95 -5 -53 31 -80 33 -80 5 0 -8 -9 -15 -19 -15 -11 0 -27 -10
-36 -22 l-15 -23 -6 23 c-4 12 -9 22 -12 22 -3 0 -50 -16 -105 -37 -85 -31
-102 -40 -111 -65 -6 -15 -17 -29 -26 -30 -51 -5 -100 -28 -100 -48 0 -10 -9
-24 -20 -31 -24 -17 -33 -51 -20 -84 7 -18 5 -25 -6 -29 -27 -10 -33 -7 -42
27 -9 36 -25 39 -30 5 -2 -12 -10 -27 -17 -33 -7 -5 -15 -19 -17 -30 -2 -11
-7 -19 -11 -17 -9 3 -69 -29 -79 -42 -3 -5 -4 -15 -1 -22 2 -7 -10 -17 -31
-24 -29 -9 -34 -15 -27 -28 4 -9 6 -23 4 -30 -3 -7 2 -19 10 -25 24 -19 27
-77 5 -99 -23 -23 -34 -23 -41 3 -5 19 -7 20 -30 4 -13 -8 -33 -17 -43 -20
-90 -19 -136 -49 -160 -103 -1 -2 -12 -4 -25 -6 -39 -4 -79 -25 -86 -43 -4
-10 -16 -27 -29 -39 -19 -19 -23 -38 -14 -79 5 -23 -1 -35 -19 -35 -20 0 -31
18 -31 52 0 28 -24 17 -28 -13 -2 -13 -10 -28 -18 -32 -8 -4 -14 -16 -14 -25
0 -11 -17 -25 -45 -37 -33 -15 -45 -26 -45 -42 0 -19 -31 -41 -52 -35 -13 3
-6 -77 7 -82 7 -2 16 -25 19 -50 4 -25 11 -48 17 -51 14 -9 11 -35 -5 -35 -7
0 -19 -7 -26 -15 -7 -8 -21 -15 -32 -15 -10 0 -21 -8 -25 -17 -3 -10 -15 -25
-26 -34 -21 -17 -16 -39 9 -39 8 0 14 -7 14 -15 0 -27 1 -30 18 -49 16 -18 16
-19 0 -13 -9 3 -19 0 -22 -8 -3 -8 -12 -12 -20 -9 -11 4 -19 -3 -26 -22 -6
-15 -20 -34 -32 -42 -17 -13 -20 -22 -15 -63 6 -46 5 -49 -17 -49 -17 0 -25 8
-32 31 -10 34 -29 40 -29 8 0 -11 -8 -26 -18 -34 -10 -7 -15 -19 -11 -29 4
-10 0 -18 -12 -22 -11 -3 -27 -10 -36 -15 -10 -5 -25 -9 -33 -9 -9 0 -15 -9
-15 -26 0 -19 -7 -28 -29 -37 -23 -8 -28 -16 -27 -41 0 -16 9 -38 18 -48 10
-10 15 -24 12 -33 -3 -8 3 -33 15 -55 l21 -40 -36 -15 c-20 -8 -39 -15 -42
-15 -8 0 -72 -71 -72 -80 0 -4 12 -12 26 -18 14 -7 22 -16 19 -22 -3 -5 4 -24
17 -41 19 -26 28 -30 53 -25 l30 6 -30 -24 c-26 -21 -28 -25 -12 -31 9 -4 17
-13 17 -20 0 -7 19 -16 45 -19 l45 -7 -14 -27 c-13 -24 -12 -28 7 -44 25 -22
37 -23 37 -3 0 26 19 16 26 -12 11 -50 13 -53 47 -53 19 0 56 -9 81 -21 40
-17 45 -23 35 -36 -17 -19 8 -38 29 -21 9 8 16 8 23 1 7 -7 22 -8 42 -2 47 13
59 11 55 -9 -2 -11 3 -26 11 -36 8 -9 15 -33 17 -53 2 -19 10 -43 19 -53 14
-15 14 -18 0 -30 -8 -7 -15 -9 -15 -6 0 4 -7 0 -16 -8 -8 -9 -24 -16 -34 -16
-10 0 -22 -9 -25 -20 -3 -11 -15 -25 -26 -30 -25 -14 -24 -33 4 -45 12 -6 22
-17 22 -25 0 -8 9 -28 19 -43 16 -24 23 -27 50 -21 l31 6 -29 -22 c-24 -20
-26 -24 -12 -32 9 -5 16 -16 16 -23 0 -11 12 -15 38 -15 48 0 55 -6 37 -34
-15 -23 -5 -47 27 -59 14 -5 18 -1 18 15 0 33 28 3 32 -35 3 -28 7 -32 35 -33
18 -1 53 -9 79 -19 40 -15 45 -20 40 -41 -5 -19 -2 -24 12 -24 10 0 23 5 30
12 9 9 13 7 18 -5 3 -9 10 -14 15 -11 27 16 156 33 168 21 5 -5 11 -5 15 1 4
7 18 7 43 0 21 -6 60 -7 88 -4 27 4 59 8 70 9 11 1 33 11 49 21 30 21 103 27
114 10 11 -16 42 -25 101 -29 32 -3 61 -11 72 -21 15 -14 22 -15 31 -6 17 17
38 15 38 -3 0 -8 9 -15 20 -15 12 0 20 7 20 16 0 14 3 14 15 4 8 -7 15 -25 15
-41 0 -30 1 -30 58 -33 16 0 35 -6 43 -12 8 -7 23 -14 34 -16 13 -2 20 -11 20
-25 1 -30 10 -37 34 -23 17 9 22 8 27 -5 4 -10 10 -12 18 -6 20 16 109 28 171
24 33 -3 81 -6 108 -7 34 -1 47 -5 48 -16 1 -8 3 -31 5 -50 3 -19 6 -141 8
-270 4 -227 -1 -309 -29 -481 -10 -59 -58 -205 -85 -260 l-29 -59 270 0 c148
0 269 2 269 4 0 2 -4 26 -9 53 -6 27 -12 70 -15 94 -3 24 -8 60 -11 79 -3 19
-7 53 -10 75 -3 22 -7 56 -10 75 -8 58 -13 102 -20 175 -4 39 -8 81 -11 95 -2
14 -6 61 -10 105 -3 44 -8 96 -10 115 -1 19 -6 91 -10 159 l-7 124 42 -6 c24
-3 51 -13 61 -22 16 -15 19 -15 35 1 14 14 21 15 36 6 16 -10 19 -9 19 7 0 11
-7 26 -15 33 -29 26 -40 34 -50 35 -5 1 -11 6 -13 12 -5 14 19 14 53 1 39 -15
112 7 119 36 3 12 3 30 0 38 -5 13 1 16 26 16 l32 0 -20 -27 c-18 -25 -18 -27
0 -45 18 -18 54 -26 43 -9 -3 5 -1 12 4 16 13 7 29 -24 24 -45 -6 -22 8 -31
50 -32 26 -1 98 -28 116 -44 2 -2 -1 -10 -8 -18 -15 -18 13 -30 39 -16 10 6
21 6 24 1 3 -4 33 -2 66 6 51 11 169 13 205 2 24 -7 143 14 170 30 50 30 78
32 121 9 35 -19 71 -26 141 -30 12 0 24 -7 27 -14 7 -20 33 -17 45 4 8 14 12
15 22 4 19 -18 28 -15 26 9 -1 12 -16 29 -39 41 -21 12 -38 25 -38 30 0 12 38
10 61 -3 12 -6 28 -7 37 -3 9 4 20 7 24 6 16 -4 59 19 53 27 -3 5 -1 13 5 16
8 5 8 11 0 20 -14 17 -5 35 19 35 24 0 41 20 41 48 0 31 17 62 35 62 44 0 90
49 48 51 -55 2 -126 42 -120 68 2 9 7 15 13 14 58 -9 75 -10 80 -1 4 6 0 14
-7 19 -7 4 -14 18 -14 31 0 16 -7 24 -22 26 -24 4 -31 26 -11 38 6 4 25 10 42
14 29 5 45 35 19 35 -13 0 -73 52 -73 63 0 17 13 21 32 9 16 -10 21 -9 32 5 8
11 17 14 27 7 22 -14 29 -11 29 11 0 12 -16 30 -42 47 -32 20 -39 28 -25 31 9
2 33 -2 52 -8 19 -6 40 -8 47 -3 7 4 24 9 38 11 33 4 34 7 33 51 -2 35 1 39
27 44 22 5 30 13 35 39 12 58 16 68 31 68 8 0 29 7 46 16 35 18 27 35 -19 39
-35 3 -80 30 -95 58 -10 19 -8 20 36 15 47 -6 63 2 49 25 -21 33 -1 71 34 62
19 -4 24 -3 20 7 -20 46 -34 68 -44 68 -7 0 -13 4 -13 9 0 5 17 3 38 -4 22 -8
41 -10 48 -4 9 7 38 15 66 18 4 1 6 19 4 41 -2 22 -1 40 2 41 48 5 62 18 62
60 0 24 33 66 49 63 3 -1 16 2 29 7 32 12 22 33 -19 40 -45 7 -91 38 -87 58 2
12 13 15 46 13 39 -3 56 8 33 22 -5 3 -7 15 -4 26 5 19 1 22 -44 36 -25 7 0
34 38 40 29 5 39 11 39 25 0 11 -7 19 -15 19 -17 0 -65 46 -65 62 0 5 7 16 15
24 13 14 13 19 0 44 -17 32 -51 46 -90 36 -20 -5 -26 -2 -31 19 -5 22 -12 25
-50 25 -46 0 -50 5 -45 57 1 13 -6 26 -17 32 -14 7 -18 18 -15 36 4 20 1 25
-15 25 -12 0 -34 11 -49 25 -15 14 -33 29 -40 35 -7 6 -10 17 -7 25 5 11 -3
17 -25 21 -24 5 -31 12 -31 30 0 17 -6 24 -20 24 -22 0 -26 20 -8 38 8 8 8 15
-1 25 -15 19 -49 28 -57 16 -9 -16 -33 -10 -87 22 -47 28 -49 30 -20 25 34 -6
49 6 36 26 -4 7 -7 22 -8 32 0 11 -8 20 -19 22 -23 3 -39 25 -26 38 4 4 22 9
40 11 53 4 54 18 5 55 -48 36 -55 55 -29 75 15 10 15 14 1 42 -19 36 -31 42
-79 37 -32 -2 -37 0 -42 22 -6 22 -11 25 -40 21 -46 -6 -58 4 -58 46 0 21 -6
38 -14 41 -8 3 -14 19 -14 36 0 24 -4 30 -22 30 -27 1 -88 53 -88 76 0 9 -13
21 -30 27 -19 7 -30 18 -30 30 0 10 -9 21 -20 24 -22 6 -26 23 -9 40 22 22 -2
36 -48 29 -37 -5 -52 -1 -99 25 -50 29 -94 33 -79 9 4 -6 -7 -15 -24 -21 -17
-6 -31 -15 -31 -20 0 -17 -19 -9 -25 11 -6 18 -8 19 -34 5 -30 -15 -51 -5 -51
23 0 11 10 13 46 8 44 -5 46 -4 40 17 -3 12 -6 32 -6 45 0 19 -4 22 -20 17
-14 -4 -22 -1 -26 10 -8 21 6 35 37 39 29 3 49 14 49 27 0 5 -6 9 -14 9 -15 0
-76 53 -76 66 0 4 7 15 15 24 12 13 13 23 6 43 -13 33 -37 46 -83 41 -31 -2
-37 0 -42 22 -6 22 -11 24 -41 20 -27 -5 -37 -1 -49 16 -11 15 -12 25 -5 34 7
9 4 18 -12 33 -12 11 -19 26 -16 34 7 18 -11 37 -34 37 -22 0 -79 56 -79 79 0
13 -10 20 -30 25 -24 4 -30 11 -30 31 0 19 -5 25 -17 23 -13 -2 -17 3 -15 17
2 11 4 27 5 35 2 12 -8 14 -46 13 -38 -2 -60 3 -102 27 -61 34 -75 37 -75 15z
m198 -1182 c-2 -9 -10 -17 -18 -19 -8 -2 -31 -7 -50 -12 -20 -5 -44 -5 -55 -1
-17 6 -17 8 -3 8 10 1 32 10 50 21 41 25 81 27 76 3z"/>
</g>
</svg>
